<mxfile host="app.diagrams.net" agent="Mozilla/5.0 (Macintosh; Intel Mac OS X 10_15_7) AppleWebKit/537.36 (KHTML, like Gecko) Chrome/129.0.0.0 Safari/537.36" version="24.7.17">
  <diagram name="第 1 页" id="i4Nu_4LzZroBrKC8KvXQ">
    <mxGraphModel dx="568" dy="307" grid="1" gridSize="10" guides="1" tooltips="1" connect="1" arrows="1" fold="1" page="1" pageScale="1" pageWidth="827" pageHeight="1169" math="0" shadow="0">
      <root>
        <mxCell id="0" />
        <mxCell id="1" parent="0" />
        <mxCell id="6MXTTaW9w-NatlQJU3yg-1" value="企业APP" style="swimlane;whiteSpace=wrap;html=1;" vertex="1" parent="1">
          <mxGeometry x="80" y="200" width="160" height="800" as="geometry" />
        </mxCell>
        <mxCell id="6MXTTaW9w-NatlQJU3yg-2" value="企业app" style="rounded=0;whiteSpace=wrap;html=1;" vertex="1" parent="6MXTTaW9w-NatlQJU3yg-1">
          <mxGeometry x="40" y="40" width="80" height="40" as="geometry" />
        </mxCell>
        <mxCell id="6MXTTaW9w-NatlQJU3yg-3" value="点击Visla" style="rounded=0;whiteSpace=wrap;html=1;" vertex="1" parent="6MXTTaW9w-NatlQJU3yg-1">
          <mxGeometry x="40" y="120" width="80" height="40" as="geometry" />
        </mxCell>
        <mxCell id="6MXTTaW9w-NatlQJU3yg-4" style="edgeStyle=orthogonalEdgeStyle;rounded=0;orthogonalLoop=1;jettySize=auto;html=1;exitX=0.5;exitY=1;exitDx=0;exitDy=0;entryX=0.5;entryY=0;entryDx=0;entryDy=0;" edge="1" parent="6MXTTaW9w-NatlQJU3yg-1" source="6MXTTaW9w-NatlQJU3yg-2" target="6MXTTaW9w-NatlQJU3yg-3">
          <mxGeometry relative="1" as="geometry" />
        </mxCell>
        <mxCell id="6MXTTaW9w-NatlQJU3yg-5" value="" style="edgeStyle=orthogonalEdgeStyle;rounded=0;orthogonalLoop=1;jettySize=auto;html=1;" edge="1" parent="6MXTTaW9w-NatlQJU3yg-1" source="6MXTTaW9w-NatlQJU3yg-6" target="6MXTTaW9w-NatlQJU3yg-7">
          <mxGeometry relative="1" as="geometry" />
        </mxCell>
        <mxCell id="6MXTTaW9w-NatlQJU3yg-6" value="企业授权页面" style="rounded=0;whiteSpace=wrap;html=1;" vertex="1" parent="6MXTTaW9w-NatlQJU3yg-1">
          <mxGeometry x="40" y="235" width="80" height="40" as="geometry" />
        </mxCell>
        <mxCell id="6MXTTaW9w-NatlQJU3yg-7" value="用户登录" style="rounded=0;whiteSpace=wrap;html=1;" vertex="1" parent="6MXTTaW9w-NatlQJU3yg-1">
          <mxGeometry x="40" y="320" width="80" height="30" as="geometry" />
        </mxCell>
        <mxCell id="6MXTTaW9w-NatlQJU3yg-8" value="" style="edgeStyle=orthogonalEdgeStyle;rounded=0;orthogonalLoop=1;jettySize=auto;html=1;" edge="1" parent="6MXTTaW9w-NatlQJU3yg-1" source="6MXTTaW9w-NatlQJU3yg-9" target="6MXTTaW9w-NatlQJU3yg-10">
          <mxGeometry relative="1" as="geometry" />
        </mxCell>
        <mxCell id="6MXTTaW9w-NatlQJU3yg-9" value="企业oauth服务" style="rounded=0;whiteSpace=wrap;html=1;" vertex="1" parent="6MXTTaW9w-NatlQJU3yg-1">
          <mxGeometry x="40" y="400" width="80" height="40" as="geometry" />
        </mxCell>
        <mxCell id="6MXTTaW9w-NatlQJU3yg-10" value="第三方应用信息" style="rounded=1;whiteSpace=wrap;html=1;" vertex="1" parent="6MXTTaW9w-NatlQJU3yg-1">
          <mxGeometry x="40" y="460" width="80" height="60" as="geometry" />
        </mxCell>
        <mxCell id="6MXTTaW9w-NatlQJU3yg-11" value="VISLA-FRONT" style="swimlane;whiteSpace=wrap;html=1;" vertex="1" parent="1">
          <mxGeometry x="280" y="200" width="160" height="800" as="geometry" />
        </mxCell>
        <mxCell id="6MXTTaW9w-NatlQJU3yg-12" value="" style="edgeStyle=orthogonalEdgeStyle;rounded=0;orthogonalLoop=1;jettySize=auto;html=1;" edge="1" parent="6MXTTaW9w-NatlQJU3yg-11" source="6MXTTaW9w-NatlQJU3yg-13" target="6MXTTaW9w-NatlQJU3yg-15">
          <mxGeometry relative="1" as="geometry" />
        </mxCell>
        <mxCell id="6MXTTaW9w-NatlQJU3yg-13" value="&lt;font style=&quot;font-size: 11px;&quot;&gt;/app/{id}/login&lt;/font&gt;" style="rounded=0;html=1;fillColor=#d5e8d4;strokeColor=#82b366;gradientColor=none;align=left;whiteSpace=wrap;" vertex="1" parent="6MXTTaW9w-NatlQJU3yg-11">
          <mxGeometry x="40" y="50" width="80" height="30" as="geometry" />
        </mxCell>
        <mxCell id="6MXTTaW9w-NatlQJU3yg-14" value="是" style="edgeStyle=orthogonalEdgeStyle;rounded=0;orthogonalLoop=1;jettySize=auto;html=1;" edge="1" parent="6MXTTaW9w-NatlQJU3yg-11" source="6MXTTaW9w-NatlQJU3yg-15" target="6MXTTaW9w-NatlQJU3yg-16">
          <mxGeometry relative="1" as="geometry" />
        </mxCell>
        <mxCell id="6MXTTaW9w-NatlQJU3yg-15" value="是否登录" style="rhombus;whiteSpace=wrap;html=1;" vertex="1" parent="6MXTTaW9w-NatlQJU3yg-11">
          <mxGeometry x="42" y="110" width="76" height="60" as="geometry" />
        </mxCell>
        <mxCell id="6MXTTaW9w-NatlQJU3yg-16" value="首页" style="rounded=0;whiteSpace=wrap;html=1;fillColor=#0050ef;fontColor=#ffffff;strokeColor=#001DBC;" vertex="1" parent="6MXTTaW9w-NatlQJU3yg-11">
          <mxGeometry x="40" y="194" width="80" height="20" as="geometry" />
        </mxCell>
        <mxCell id="6MXTTaW9w-NatlQJU3yg-17" value="&lt;font style=&quot;font-size: 11px;&quot;&gt;/app/{id}/login&lt;/font&gt;" style="rounded=0;html=1;fillColor=#d5e8d4;strokeColor=#82b366;gradientColor=none;align=left;whiteSpace=wrap;" vertex="1" parent="6MXTTaW9w-NatlQJU3yg-11">
          <mxGeometry x="40" y="240" width="80" height="30" as="geometry" />
        </mxCell>
        <mxCell id="6MXTTaW9w-NatlQJU3yg-18" value="&lt;font style=&quot;font-size: 11px;&quot;&gt;/app/{id}/auth?&lt;/font&gt;" style="rounded=0;html=1;fillColor=#d5e8d4;strokeColor=#82b366;gradientColor=none;align=left;whiteSpace=wrap;" vertex="1" parent="6MXTTaW9w-NatlQJU3yg-11">
          <mxGeometry x="38" y="320" width="80" height="30" as="geometry" />
        </mxCell>
        <mxCell id="6MXTTaW9w-NatlQJU3yg-19" value="&lt;font style=&quot;font-size: 11px;&quot;&gt;/app/{id}/auth?&lt;/font&gt;" style="rounded=0;html=1;fillColor=#d5e8d4;strokeColor=#82b366;gradientColor=none;align=left;whiteSpace=wrap;" vertex="1" parent="6MXTTaW9w-NatlQJU3yg-11">
          <mxGeometry x="38" y="620" width="80" height="30" as="geometry" />
        </mxCell>
        <mxCell id="6MXTTaW9w-NatlQJU3yg-20" value="VISLA-API" style="swimlane;whiteSpace=wrap;html=1;" vertex="1" parent="1">
          <mxGeometry x="500" y="200" width="160" height="800" as="geometry" />
        </mxCell>
        <mxCell id="6MXTTaW9w-NatlQJU3yg-21" value="认证1：获取redirect-url" style="rounded=0;whiteSpace=wrap;html=1;" vertex="1" parent="6MXTTaW9w-NatlQJU3yg-20">
          <mxGeometry x="30" y="120" width="100" height="40" as="geometry" />
        </mxCell>
        <mxCell id="6MXTTaW9w-NatlQJU3yg-22" value="认证2：获取用户信息" style="rounded=0;whiteSpace=wrap;html=1;" vertex="1" parent="6MXTTaW9w-NatlQJU3yg-20">
          <mxGeometry x="30" y="315" width="100" height="40" as="geometry" />
        </mxCell>
        <mxCell id="6MXTTaW9w-NatlQJU3yg-23" value="" style="edgeStyle=orthogonalEdgeStyle;rounded=0;orthogonalLoop=1;jettySize=auto;html=1;" edge="1" parent="6MXTTaW9w-NatlQJU3yg-20" source="6MXTTaW9w-NatlQJU3yg-24" target="6MXTTaW9w-NatlQJU3yg-26">
          <mxGeometry relative="1" as="geometry" />
        </mxCell>
        <mxCell id="6MXTTaW9w-NatlQJU3yg-24" value="认证3：使用应用信息登录" style="rounded=0;whiteSpace=wrap;html=1;" vertex="1" parent="6MXTTaW9w-NatlQJU3yg-20">
          <mxGeometry x="30" y="470" width="100" height="40" as="geometry" />
        </mxCell>
        <mxCell id="6MXTTaW9w-NatlQJU3yg-25" value="否" style="edgeStyle=orthogonalEdgeStyle;rounded=0;orthogonalLoop=1;jettySize=auto;html=1;" edge="1" parent="6MXTTaW9w-NatlQJU3yg-20" source="6MXTTaW9w-NatlQJU3yg-26" target="6MXTTaW9w-NatlQJU3yg-27">
          <mxGeometry relative="1" as="geometry" />
        </mxCell>
        <mxCell id="6MXTTaW9w-NatlQJU3yg-26" value="已存在用户" style="rhombus;whiteSpace=wrap;html=1;" vertex="1" parent="6MXTTaW9w-NatlQJU3yg-20">
          <mxGeometry x="42" y="530" width="76" height="60" as="geometry" />
        </mxCell>
        <mxCell id="6MXTTaW9w-NatlQJU3yg-27" value="创建新用户" style="shape=process;whiteSpace=wrap;html=1;backgroundOutline=1;" vertex="1" parent="6MXTTaW9w-NatlQJU3yg-20">
          <mxGeometry x="20" y="640" width="120" height="60" as="geometry" />
        </mxCell>
        <mxCell id="6MXTTaW9w-NatlQJU3yg-28" style="edgeStyle=orthogonalEdgeStyle;rounded=0;orthogonalLoop=1;jettySize=auto;html=1;entryX=0;entryY=0.5;entryDx=0;entryDy=0;" edge="1" parent="1" source="6MXTTaW9w-NatlQJU3yg-3" target="6MXTTaW9w-NatlQJU3yg-13">
          <mxGeometry relative="1" as="geometry" />
        </mxCell>
        <mxCell id="6MXTTaW9w-NatlQJU3yg-29" style="edgeStyle=orthogonalEdgeStyle;rounded=0;orthogonalLoop=1;jettySize=auto;html=1;" edge="1" parent="1" source="6MXTTaW9w-NatlQJU3yg-15" target="6MXTTaW9w-NatlQJU3yg-21">
          <mxGeometry relative="1" as="geometry" />
        </mxCell>
        <mxCell id="6MXTTaW9w-NatlQJU3yg-30" value="否" style="edgeLabel;html=1;align=center;verticalAlign=middle;resizable=0;points=[];" vertex="1" connectable="0" parent="6MXTTaW9w-NatlQJU3yg-29">
          <mxGeometry x="0.2348" relative="1" as="geometry">
            <mxPoint as="offset" />
          </mxGeometry>
        </mxCell>
        <mxCell id="6MXTTaW9w-NatlQJU3yg-31" style="edgeStyle=orthogonalEdgeStyle;rounded=0;orthogonalLoop=1;jettySize=auto;html=1;entryX=1;entryY=0.5;entryDx=0;entryDy=0;exitX=0.5;exitY=1;exitDx=0;exitDy=0;" edge="1" parent="1" source="6MXTTaW9w-NatlQJU3yg-21" target="6MXTTaW9w-NatlQJU3yg-17">
          <mxGeometry relative="1" as="geometry" />
        </mxCell>
        <mxCell id="6MXTTaW9w-NatlQJU3yg-32" style="edgeStyle=orthogonalEdgeStyle;rounded=0;orthogonalLoop=1;jettySize=auto;html=1;entryX=1;entryY=0.5;entryDx=0;entryDy=0;" edge="1" parent="1" source="6MXTTaW9w-NatlQJU3yg-17" target="6MXTTaW9w-NatlQJU3yg-6">
          <mxGeometry relative="1" as="geometry" />
        </mxCell>
        <mxCell id="6MXTTaW9w-NatlQJU3yg-33" style="edgeStyle=orthogonalEdgeStyle;rounded=0;orthogonalLoop=1;jettySize=auto;html=1;" edge="1" parent="1" source="6MXTTaW9w-NatlQJU3yg-7" target="6MXTTaW9w-NatlQJU3yg-18">
          <mxGeometry relative="1" as="geometry" />
        </mxCell>
        <mxCell id="6MXTTaW9w-NatlQJU3yg-34" style="edgeStyle=orthogonalEdgeStyle;rounded=0;orthogonalLoop=1;jettySize=auto;html=1;entryX=0;entryY=0.5;entryDx=0;entryDy=0;" edge="1" parent="1" source="6MXTTaW9w-NatlQJU3yg-18" target="6MXTTaW9w-NatlQJU3yg-22">
          <mxGeometry relative="1" as="geometry" />
        </mxCell>
        <mxCell id="6MXTTaW9w-NatlQJU3yg-35" style="edgeStyle=orthogonalEdgeStyle;rounded=0;orthogonalLoop=1;jettySize=auto;html=1;entryX=1;entryY=0.5;entryDx=0;entryDy=0;exitX=0.5;exitY=1;exitDx=0;exitDy=0;" edge="1" parent="1" source="6MXTTaW9w-NatlQJU3yg-22" target="6MXTTaW9w-NatlQJU3yg-9">
          <mxGeometry relative="1" as="geometry" />
        </mxCell>
        <mxCell id="6MXTTaW9w-NatlQJU3yg-36" value="1" style="edgeLabel;html=1;align=center;verticalAlign=middle;resizable=0;points=[];" vertex="1" connectable="0" parent="6MXTTaW9w-NatlQJU3yg-35">
          <mxGeometry x="-0.7034" relative="1" as="geometry">
            <mxPoint as="offset" />
          </mxGeometry>
        </mxCell>
        <mxCell id="6MXTTaW9w-NatlQJU3yg-37" style="edgeStyle=orthogonalEdgeStyle;rounded=0;orthogonalLoop=1;jettySize=auto;html=1;entryX=0;entryY=0.5;entryDx=0;entryDy=0;" edge="1" parent="1" source="6MXTTaW9w-NatlQJU3yg-10" target="6MXTTaW9w-NatlQJU3yg-24">
          <mxGeometry relative="1" as="geometry" />
        </mxCell>
        <mxCell id="6MXTTaW9w-NatlQJU3yg-38" style="edgeStyle=orthogonalEdgeStyle;rounded=0;orthogonalLoop=1;jettySize=auto;html=1;entryX=1;entryY=0.5;entryDx=0;entryDy=0;" edge="1" parent="1" source="6MXTTaW9w-NatlQJU3yg-26" target="6MXTTaW9w-NatlQJU3yg-19">
          <mxGeometry relative="1" as="geometry">
            <mxPoint x="420" y="835" as="targetPoint" />
          </mxGeometry>
        </mxCell>
        <mxCell id="6MXTTaW9w-NatlQJU3yg-39" value="是，返回token" style="edgeLabel;html=1;align=center;verticalAlign=middle;resizable=0;points=[];" vertex="1" connectable="0" parent="6MXTTaW9w-NatlQJU3yg-38">
          <mxGeometry x="-0.4556" y="2" relative="1" as="geometry">
            <mxPoint as="offset" />
          </mxGeometry>
        </mxCell>
        <mxCell id="6MXTTaW9w-NatlQJU3yg-40" value="返回token" style="edgeStyle=orthogonalEdgeStyle;rounded=0;orthogonalLoop=1;jettySize=auto;html=1;entryX=0.5;entryY=1;entryDx=0;entryDy=0;" edge="1" parent="1" source="6MXTTaW9w-NatlQJU3yg-27" target="6MXTTaW9w-NatlQJU3yg-19">
          <mxGeometry relative="1" as="geometry" />
        </mxCell>
        <mxCell id="6MXTTaW9w-NatlQJU3yg-41" value="&lt;div data-pm-slice=&quot;1 1 []&quot; data-language=&quot;sql&quot; class=&quot;code-block with-line-numbers&quot;&gt;&lt;pre&gt;&lt;div style=&quot;text-align: justify;&quot;&gt;&lt;div data-pm-slice=&quot;1 1 []&quot; data-language=&quot;sql&quot; class=&quot;code-block with-line-numbers&quot;&gt;&lt;pre&gt;&lt;code spellcheck=&quot;false&quot;&gt;https://authorization-server.com/auth&lt;br/&gt;  ?response_type=code &amp;amp;client_id=YOUR_CLIENT_ID&lt;br/&gt;  &amp;amp;redirect_uri=https://yourapp.com/callback&lt;br/&gt;  &amp;amp;scope=YOUR_SCOPES&lt;br/&gt;  &amp;amp;state=YOUR_STATE&lt;/code&gt;&lt;/pre&gt;&lt;/div&gt;&lt;/div&gt;&lt;/pre&gt;&lt;/div&gt;" style="rounded=1;html=1;whiteSpace=wrap;align=left;" vertex="1" parent="1">
          <mxGeometry x="670" y="310" width="350" height="120" as="geometry" />
        </mxCell>
        <mxCell id="6MXTTaW9w-NatlQJU3yg-42" value="&lt;div data-pm-slice=&quot;1 1 []&quot; data-language=&quot;sql&quot; class=&quot;code-block with-line-numbers&quot;&gt;&lt;pre&gt;&lt;div style=&quot;text-align: justify;&quot;&gt;&lt;div data-pm-slice=&quot;1 1 []&quot; data-language=&quot;sql&quot; class=&quot;code-block with-line-numbers&quot;&gt;&lt;pre&gt;&lt;code spellcheck=&quot;false&quot;&gt;https://yourapp.com/{appid}/auth?ticket={ticket}&lt;/code&gt;&lt;/pre&gt;&lt;/div&gt;&lt;/div&gt;&lt;/pre&gt;&lt;/div&gt;" style="rounded=1;html=1;whiteSpace=wrap;align=left;" vertex="1" parent="1">
          <mxGeometry x="680" y="510" width="350" height="120" as="geometry" />
        </mxCell>
      </root>
    </mxGraphModel>
  </diagram>
</mxfile>
